<?xml version="1.0" standalone="no"?>
<!DOCTYPE svg PUBLIC "-//W3C//DTD SVG 20010904//EN"
 "http://www.w3.org/TR/2001/REC-SVG-20010904/DTD/svg10.dtd">
<svg version="1.0" xmlns="http://www.w3.org/2000/svg"
 width="512.000000pt" height="512.000000pt" viewBox="0 0 512.000000 512.000000"
 preserveAspectRatio="xMidYMid meet">

<g transform="translate(0.000000,512.000000) scale(0.100000,-0.100000)"
fill="#000000" stroke="none">
<path d="M2235 5008 c-95 -15 -317 -58 -350 -69 -134 -42 -259 -86 -324 -116
-136 -63 -226 -108 -229 -115 -2 -5 -8 -8 -13 -8 -16 0 -232 -145 -314 -211
-152 -121 -260 -233 -430 -441 -7 -9 -22 -29 -32 -45 -9 -15 -20 -30 -23 -33
-39 -36 -260 -446 -260 -482 0 -8 -4 -18 -9 -23 -13 -16 -91 -261 -107 -339
-83 -406 -85 -699 -7 -1086 8 -41 19 -88 24 -105 54 -180 70 -229 88 -268 12
-25 21 -49 21 -52 0 -3 23 -54 51 -113 76 -158 184 -335 278 -452 20 -25 45
-56 56 -70 41 -52 283 -288 350 -341 71 -56 233 -169 241 -169 3 0 24 -12 47
-28 48 -31 197 -106 307 -153 150 -64 354 -122 520 -148 41 -7 99 -16 129 -22
88 -15 504 -11 612 6 230 35 294 50 461 105 148 49 379 154 465 212 23 15 44
28 47 28 8 0 160 106 217 150 197 154 388 356 504 530 16 25 33 47 36 50 17
16 118 197 173 312 118 247 189 498 221 780 70 627 -101 1251 -479 1753 -171
227 -350 398 -584 558 -46 31 -86 57 -88 57 -3 0 -24 12 -47 28 -97 64 -322
164 -487 217 -167 54 -237 69 -471 105 -81 12 -511 11 -594 -2z m1801 -816
c36 -23 42 -97 24 -270 -16 -146 -34 -260 -66 -402 -23 -103 -76 -263 -93
-282 -9 -9 -45 -33 -81 -54 -94 -53 -152 -86 -175 -98 -11 -6 -22 -13 -25 -16
-5 -5 -41 -25 -120 -68 l-51 -27 141 -5 c148 -5 153 -7 166 -57 6 -21 -40
-123 -58 -131 -5 -2 -8 -8 -8 -14 0 -24 -165 -254 -271 -378 -122 -142 -320
-329 -425 -400 -12 -8 -57 -39 -99 -67 -42 -29 -80 -53 -85 -53 -5 0 -10 -4
-12 -8 -5 -12 -273 -151 -378 -196 -144 -61 -346 -122 -482 -147 -136 -24
-167 -28 -273 -39 -208 -19 -189 -12 -240 -91 -25 -38 -45 -74 -45 -79 0 -6
-3 -10 -7 -10 -5 0 -13 -10 -19 -23 -112 -223 -175 -342 -186 -348 -22 -14
-75 -10 -92 7 -37 36 -32 60 47 218 102 203 167 312 304 511 46 68 162 225
173 235 3 3 34 41 70 85 120 149 306 358 430 485 200 205 220 228 220 251 -1
68 -69 83 -126 28 -78 -74 -466 -498 -540 -589 -16 -19 -31 -37 -34 -40 -20
-19 -111 -134 -170 -212 -38 -51 -79 -104 -91 -118 l-21 -25 6 50 c16 145 30
230 52 320 14 55 30 118 35 140 12 48 69 216 79 230 4 6 15 33 25 60 24 66
120 257 162 323 18 29 33 54 33 57 0 7 109 165 139 201 14 17 59 72 100 122
366 453 1013 817 1606 903 170 25 437 37 461 21z"/>
</g>
</svg>
