<svg id="_x31__x2C_5px" enable-background="new 0 0 24 24" height="512" viewBox="0 0 24 24" width="512" xmlns="http://www.w3.org/2000/svg"><path d="m15.131 22.682c-1.067-1.067-1.099-2.101-1.1-2.153-.002-.223-.183-.404-.406-.404h-3.266c-.224 0-.406.184-.406.409 0 .044-.014 1.079-1.084 2.148-.116.116-.151.291-.088.443s.211.251.375.251h5.688c.164 0 .313-.099.375-.251.063-.153.028-.327-.088-.443z" fill="#607d8b"/><path d="m23.25 16.75h-22.5v2.5c0 .552.448 1 1 1h20.5c.552 0 1-.448 1-1z" fill="#607d8b"/><path d="m23.25 16.75h-22.5v-11c0-.552.448-1 1-1h20.5c.552 0 1 .448 1 1z" fill="#fff"/><path d="m22.25 21h-20.5c-.965 0-1.75-.785-1.75-1.75v-13.5c0-.965.785-1.75 1.75-1.75h4.5c.414 0 .75.336.75.75s-.336.75-.75.75h-4.5c-.138 0-.25.112-.25.25v13.5c0 .138.112.25.25.25h20.5c.138 0 .25-.112.25-.25v-13.5c0-.138-.112-.25-.25-.25h-1.5c-.414 0-.75-.336-.75-.75s.336-.75.75-.75h1.5c.965 0 1.75.785 1.75 1.75v13.5c0 .965-.785 1.75-1.75 1.75z"/><path d="m23.25 17.5h-22.5c-.414 0-.75-.336-.75-.75s.336-.75.75-.75h22.5c.414 0 .75.336.75.75s-.336.75-.75.75z"/><path d="m15.25 24h-6.5c-.303 0-.577-.183-.693-.463s-.052-.602.163-.817c1.041-1.041 1.265-2.553 1.267-2.567.054-.411.435-.707.841-.646.411.054.7.431.646.841-.008.059-.147 1.066-.744 2.152h3.523c-.591-1.08-.738-2.088-.746-2.147-.057-.41.229-.788.64-.846.415-.055.788.229.846.639.007.045.232 1.469 1.184 2.487.195.136.323.361.323.617 0 .414-.336.75-.75.75z"/><path d="m9.614 11.999c-.192 0-.384-.073-.531-.22-.292-.293-.292-.768 0-1.061.42-.42.603-1.019.488-1.603l-.662-3.362c-.03-.151-.045-.308-.045-.469 0-1.335 1.086-2.421 2.42-2.421.161 0 .321.016.475.048l3.357.66c.581.119 1.182-.065 1.602-.487.293-.293.768-.295 1.061-.001.293.293.293.767.001 1.061-.774.775-1.878 1.109-2.954.9l-3.363-.662c-.571-.122-1.101.334-1.1.902 0 .062.006.122.017.18l.663 3.363c.211 1.075-.125 2.179-.899 2.952-.146.147-.338.22-.53.22z"/><path d="m12.716 9.137c-.161 0-.321-.016-.475-.048l-3.357-.66c-.58-.116-1.182.066-1.602.487-.295.292-.769.294-1.062.001s-.293-.767-.001-1.061c.774-.774 1.879-1.107 2.954-.9l3.363.662c.568.117 1.1-.334 1.1-.902 0-.062-.006-.122-.017-.18l-.663-3.363c-.211-1.075.125-2.179.899-2.952.293-.293.768-.293 1.061 0 .292.293.292.768 0 1.061-.42.42-.603 1.019-.488 1.603l.663 3.363c.03.151.045.308.045.469 0 1.334-1.086 2.42-2.42 2.42z"/></svg>