<?xml version="1.0" standalone="no"?>
<!DOCTYPE svg PUBLIC "-//W3C//DTD SVG 20010904//EN"
 "http://www.w3.org/TR/2001/REC-SVG-20010904/DTD/svg10.dtd">
<svg version="1.0" xmlns="http://www.w3.org/2000/svg"
 width="512.000000pt" height="512.000000pt" viewBox="0 0 512.000000 512.000000"
 preserveAspectRatio="xMidYMid meet">
<metadata>
Created by potrace 1.14, written by Peter Selinger 2001-2017
</metadata>
<g transform="translate(0.000000,512.000000) scale(0.100000,-0.100000)"
fill="#000000" stroke="none">
<path d="M4910 5113 c-163 -32 -535 -142 -730 -216 -278 -104 -739 -323 -862
-408 -14 -11 -28 -19 -31 -19 -20 0 -518 -337 -547 -369 -3 -4 -39 -33 -80
-66 -41 -32 -80 -64 -86 -70 -6 -5 -40 -35 -75 -65 -85 -73 -1022 -1010 -1080
-1080 -39 -47 -101 -134 -146 -206 -64 -99 -168 -333 -188 -424 -2 -8 -42
-139 -88 -290 -46 -151 -106 -349 -133 -439 l-49 -164 -5 101 c-5 107 -16 133
-72 175 -37 28 -105 30 -151 4 -74 -41 -71 -26 -77 -465 l-5 -393 -236 -237
c-130 -130 -243 -251 -253 -269 -42 -82 11 -191 103 -209 79 -16 90 -9 354
254 l248 247 382 1 c421 1 422 1 467 64 51 71 28 175 -49 218 -31 18 -56 22
-127 23 -71 0 -84 2 -64 10 14 6 32 12 40 14 8 2 69 20 135 40 66 20 239 72
385 116 361 109 458 143 575 199 250 121 315 176 877 740 478 479 509 512 598
620 25 30 51 62 58 70 88 107 340 486 425 640 95 174 102 200 71 266 -31 65
-64 78 -202 84 l-122 5 301 190 c204 128 308 200 320 220 16 26 74 169 154
380 71 189 164 484 172 547 7 57 -14 107 -57 138 -30 21 -103 33 -150 23z"/>
</g>
</svg>
